<svg xmlns="http://www.w3.org/2000/svg" xmlns:xlink="http://www.w3.org/1999/xlink" width="460" zoomAndPan="magnify" viewBox="0 0 345 105.749996" height="141" preserveAspectRatio="xMidYMid meet" version="1.0"><defs><g/><clipPath id="8e9bdfea77"><path d="M 0.40625 0 L 99.921875 0 L 99.921875 99.515625 L 0.40625 99.515625 Z M 0.40625 0 " clip-rule="nonzero"/></clipPath></defs><g clip-path="url(#8e9bdfea77)"><path fill="#000000" d="M 27.605469 99.703125 L 27.605469 72.5 L 0.40625 72.5 L 0.40625 27.199219 L 27.605469 27.199219 L 27.605469 0 L 72.910156 0 L 72.910156 27.199219 L 100.109375 27.199219 L 99.191406 57.5 L 97.839844 29.46875 L 70.640625 29.46875 L 70.640625 2.269531 L 29.875 2.269531 L 29.875 29.46875 L 2.675781 29.46875 L 2.675781 70.234375 L 29.875 70.234375 L 29.875 97.433594 L 71.773438 97.433594 Z M 27.605469 99.703125 " fill-opacity="1" fill-rule="nonzero"/></g><path fill="#000000" d="M 52.945312 91.972656 C 52.945312 92.195312 52.867188 92.382812 52.710938 92.539062 C 52.550781 92.699219 52.363281 92.777344 52.140625 92.777344 C 51.917969 92.777344 51.730469 92.699219 51.574219 92.539062 C 51.417969 92.382812 51.339844 92.195312 51.339844 91.972656 C 51.339844 91.75 51.417969 91.5625 51.574219 91.40625 C 51.730469 91.246094 51.917969 91.167969 52.140625 91.167969 C 52.363281 91.167969 52.550781 91.246094 52.710938 91.40625 C 52.867188 91.5625 52.945312 91.75 52.945312 91.972656 Z M 52.945312 91.972656 " fill-opacity="1" fill-rule="nonzero"/><path fill="#000000" d="M 53.421875 88.300781 C 53.421875 88.566406 53.328125 88.792969 53.140625 88.984375 C 52.949219 89.171875 52.722656 89.265625 52.457031 89.265625 C 52.191406 89.265625 51.964844 89.171875 51.777344 88.984375 C 51.585938 88.792969 51.492188 88.566406 51.492188 88.300781 C 51.492188 88.035156 51.585938 87.808594 51.777344 87.621094 C 51.964844 87.429688 52.191406 87.335938 52.457031 87.335938 C 52.722656 87.335938 52.949219 87.429688 53.140625 87.621094 C 53.328125 87.808594 53.421875 88.035156 53.421875 88.300781 Z M 53.421875 88.300781 " fill-opacity="1" fill-rule="nonzero"/><path fill="#000000" d="M 53.632812 84.257812 C 53.632812 84.410156 53.605469 84.5625 53.542969 84.707031 C 53.484375 84.851562 53.398438 84.976562 53.289062 85.089844 C 53.179688 85.199219 53.050781 85.285156 52.90625 85.34375 C 52.765625 85.402344 52.613281 85.433594 52.457031 85.433594 C 52.300781 85.433594 52.152344 85.402344 52.007812 85.34375 C 51.863281 85.285156 51.734375 85.199219 51.625 85.089844 C 51.515625 84.976562 51.429688 84.851562 51.371094 84.707031 C 51.308594 84.5625 51.28125 84.410156 51.28125 84.257812 C 51.28125 84.101562 51.308594 83.949219 51.371094 83.804688 C 51.429688 83.660156 51.515625 83.535156 51.625 83.421875 C 51.734375 83.3125 51.863281 83.226562 52.007812 83.167969 C 52.152344 83.109375 52.300781 83.078125 52.457031 83.078125 C 52.613281 83.078125 52.765625 83.109375 52.90625 83.167969 C 53.050781 83.226562 53.179688 83.3125 53.289062 83.421875 C 53.398438 83.535156 53.484375 83.660156 53.542969 83.804688 C 53.605469 83.949219 53.632812 84.101562 53.632812 84.257812 Z M 53.632812 84.257812 " fill-opacity="1" fill-rule="nonzero"/><path fill="#000000" d="M 53.632812 79.347656 C 53.632812 79.503906 53.605469 79.652344 53.542969 79.796875 C 53.484375 79.941406 53.398438 80.066406 53.289062 80.179688 C 53.179688 80.289062 53.050781 80.375 52.90625 80.433594 C 52.765625 80.492188 52.613281 80.523438 52.457031 80.523438 C 52.300781 80.523438 52.152344 80.492188 52.007812 80.433594 C 51.863281 80.375 51.734375 80.289062 51.625 80.179688 C 51.515625 80.066406 51.429688 79.941406 51.371094 79.796875 C 51.308594 79.652344 51.28125 79.503906 51.28125 79.347656 C 51.28125 79.191406 51.308594 79.039062 51.371094 78.894531 C 51.429688 78.75 51.515625 78.625 51.625 78.515625 C 51.734375 78.402344 51.863281 78.320312 52.007812 78.257812 C 52.152344 78.199219 52.300781 78.167969 52.457031 78.167969 C 52.613281 78.167969 52.765625 78.199219 52.90625 78.257812 C 53.050781 78.320312 53.179688 78.402344 53.289062 78.515625 C 53.398438 78.625 53.484375 78.75 53.542969 78.894531 C 53.605469 79.039062 53.632812 79.191406 53.632812 79.347656 Z M 53.632812 79.347656 " fill-opacity="1" fill-rule="nonzero"/><path fill="#000000" d="M 52.785156 50.921875 C 52.785156 51.144531 52.707031 51.335938 52.550781 51.492188 C 52.394531 51.648438 52.203125 51.726562 51.984375 51.726562 C 51.761719 51.726562 51.570312 51.648438 51.414062 51.492188 C 51.257812 51.335938 51.179688 51.144531 51.179688 50.921875 C 51.179688 50.703125 51.257812 50.511719 51.414062 50.355469 C 51.570312 50.199219 51.761719 50.121094 51.984375 50.121094 C 52.203125 50.121094 52.394531 50.199219 52.550781 50.355469 C 52.707031 50.511719 52.785156 50.703125 52.785156 50.921875 Z M 52.785156 50.921875 " fill-opacity="1" fill-rule="nonzero"/><path fill="#000000" d="M 52.472656 54.59375 C 52.472656 54.859375 52.378906 55.089844 52.191406 55.277344 C 52.003906 55.464844 51.773438 55.558594 51.507812 55.558594 C 51.242188 55.558594 51.015625 55.464844 50.828125 55.277344 C 50.636719 55.089844 50.542969 54.859375 50.542969 54.59375 C 50.542969 54.328125 50.636719 54.101562 50.828125 53.914062 C 51.015625 53.722656 51.242188 53.628906 51.507812 53.628906 C 51.773438 53.628906 52.003906 53.722656 52.191406 53.914062 C 52.378906 54.101562 52.472656 54.328125 52.472656 54.59375 Z M 52.472656 54.59375 " fill-opacity="1" fill-rule="nonzero"/><path fill="#000000" d="M 52.367188 58.640625 C 52.367188 58.796875 52.339844 58.945312 52.28125 59.089844 C 52.21875 59.234375 52.132812 59.363281 52.023438 59.472656 C 51.914062 59.582031 51.785156 59.667969 51.640625 59.726562 C 51.5 59.785156 51.347656 59.816406 51.191406 59.816406 C 51.035156 59.816406 50.886719 59.785156 50.742188 59.726562 C 50.597656 59.667969 50.46875 59.582031 50.359375 59.472656 C 50.25 59.363281 50.164062 59.234375 50.105469 59.089844 C 50.046875 58.945312 50.015625 58.796875 50.015625 58.640625 C 50.015625 58.484375 50.046875 58.332031 50.105469 58.1875 C 50.164062 58.046875 50.25 57.917969 50.359375 57.808594 C 50.46875 57.699219 50.597656 57.613281 50.742188 57.550781 C 50.886719 57.492188 51.035156 57.464844 51.191406 57.464844 C 51.347656 57.464844 51.5 57.492188 51.640625 57.550781 C 51.785156 57.613281 51.914062 57.699219 52.023438 57.808594 C 52.132812 57.917969 52.21875 58.046875 52.28125 58.1875 C 52.339844 58.332031 52.367188 58.484375 52.367188 58.640625 Z M 52.367188 58.640625 " fill-opacity="1" fill-rule="nonzero"/><path fill="#000000" d="M 52.527344 63.550781 C 52.527344 63.707031 52.496094 63.855469 52.4375 64 C 52.378906 64.144531 52.292969 64.269531 52.183594 64.382812 C 52.074219 64.492188 51.945312 64.578125 51.800781 64.636719 C 51.65625 64.695312 51.507812 64.726562 51.351562 64.726562 C 51.195312 64.726562 51.042969 64.695312 50.898438 64.636719 C 50.757812 64.578125 50.628906 64.492188 50.519531 64.382812 C 50.40625 64.269531 50.324219 64.144531 50.261719 64 C 50.203125 63.855469 50.171875 63.707031 50.171875 63.550781 C 50.171875 63.394531 50.203125 63.242188 50.261719 63.097656 C 50.324219 62.953125 50.40625 62.828125 50.519531 62.71875 C 50.628906 62.605469 50.757812 62.523438 50.898438 62.460938 C 51.042969 62.402344 51.195312 62.371094 51.351562 62.371094 C 51.507812 62.371094 51.65625 62.402344 51.800781 62.460938 C 51.945312 62.523438 52.074219 62.605469 52.183594 62.71875 C 52.292969 62.828125 52.378906 62.953125 52.4375 63.097656 C 52.496094 63.242188 52.527344 63.394531 52.527344 63.550781 Z M 52.527344 63.550781 " fill-opacity="1" fill-rule="nonzero"/><path fill="#000000" d="M 53.453125 74.179688 C 53.453125 74.375 53.414062 74.5625 53.339844 74.742188 C 53.265625 74.921875 53.160156 75.082031 53.023438 75.21875 C 52.882812 75.355469 52.726562 75.460938 52.546875 75.535156 C 52.367188 75.609375 52.179688 75.648438 51.984375 75.648438 C 51.789062 75.648438 51.601562 75.609375 51.421875 75.535156 C 51.242188 75.460938 51.082031 75.355469 50.945312 75.21875 C 50.804688 75.082031 50.699219 74.921875 50.625 74.742188 C 50.550781 74.5625 50.511719 74.375 50.511719 74.179688 C 50.511719 73.984375 50.550781 73.796875 50.625 73.617188 C 50.699219 73.4375 50.804688 73.277344 50.945312 73.140625 C 51.082031 73 51.242188 72.894531 51.421875 72.820312 C 51.601562 72.746094 51.789062 72.707031 51.984375 72.707031 C 52.179688 72.707031 52.367188 72.746094 52.546875 72.820312 C 52.726562 72.894531 52.882812 73 53.023438 73.140625 C 53.160156 73.277344 53.265625 73.4375 53.339844 73.617188 C 53.414062 73.796875 53.453125 73.984375 53.453125 74.179688 Z M 53.453125 74.179688 " fill-opacity="1" fill-rule="nonzero"/><path fill="#000000" d="M 53.136719 68.71875 C 53.136719 68.914062 53.097656 69.101562 53.023438 69.28125 C 52.949219 69.460938 52.84375 69.617188 52.707031 69.757812 C 52.566406 69.894531 52.410156 70 52.230469 70.074219 C 52.050781 70.148438 51.863281 70.1875 51.667969 70.1875 C 51.472656 70.1875 51.285156 70.148438 51.105469 70.074219 C 50.925781 70 50.765625 69.894531 50.628906 69.757812 C 50.488281 69.617188 50.382812 69.460938 50.308594 69.28125 C 50.234375 69.101562 50.195312 68.914062 50.195312 68.71875 C 50.195312 68.523438 50.234375 68.335938 50.308594 68.15625 C 50.382812 67.976562 50.488281 67.816406 50.628906 67.679688 C 50.765625 67.539062 50.925781 67.433594 51.105469 67.359375 C 51.285156 67.285156 51.472656 67.246094 51.667969 67.246094 C 51.863281 67.246094 52.050781 67.285156 52.230469 67.359375 C 52.410156 67.433594 52.566406 67.539062 52.707031 67.679688 C 52.84375 67.816406 52.949219 67.976562 53.023438 68.15625 C 53.097656 68.335938 53.136719 68.523438 53.136719 68.71875 Z M 53.136719 68.71875 " fill-opacity="1" fill-rule="nonzero"/><path fill="#000000" d="M 37.570312 46.046875 C 37.671875 45.992188 37.773438 45.9375 37.878906 45.878906 C 37.683594 45.964844 37.570312 46.019531 37.570312 46.046875 Z M 37.570312 46.046875 " fill-opacity="1" fill-rule="nonzero"/><path fill="#000000" d="M 40.867188 35.875 C 40.90625 35.910156 40.949219 35.945312 40.996094 35.984375 C 40.929688 35.910156 40.886719 35.871094 40.867188 35.875 Z M 40.867188 35.875 " fill-opacity="1" fill-rule="nonzero"/><path fill="#000000" d="M 47.199219 34.109375 C 47.214844 34.011719 47.210938 33.914062 47.179688 33.816406 C 46.90625 31.5625 41.875 28.109375 39.332031 27.417969 C 45.109375 31.320312 43.921875 37.519531 43.285156 37.789062 C 42.773438 37.207031 41.609375 36.488281 40.996094 35.984375 C 41.6875 36.773438 44.765625 41.679688 44.570312 42.421875 C 44.558594 42.457031 44.585938 42.488281 44.59375 42.523438 C 42.859375 43.054688 40.269531 44.578125 37.875 45.878906 C 39.421875 45.230469 46.292969 43.050781 46.339844 43.335938 C 46.417969 43.707031 48.679688 48.335938 48.679688 48.335938 C 48.621094 47.957031 46.679688 40.023438 46.285156 39.109375 Z M 45.746094 42.230469 C 45.742188 42.210938 45.738281 42.1875 45.734375 42.167969 C 45.648438 41.808594 45.535156 41.457031 45.40625 41.121094 C 45.144531 40.453125 44.804688 39.828125 44.417969 39.246094 C 44.332031 39.113281 44.238281 38.984375 44.144531 38.855469 C 44.164062 38.8125 44.183594 38.769531 44.203125 38.726562 C 45.03125 36.792969 45.117188 34.546875 44.464844 31.929688 C 44.460938 31.902344 44.453125 31.878906 44.445312 31.855469 C 44.660156 32.042969 44.863281 32.238281 45.046875 32.445312 L 45.046875 32.449219 C 45.453125 32.910156 45.777344 33.433594 46 34.046875 L 45.078125 39.074219 C 45.058594 39.191406 45.074219 39.3125 45.121094 39.421875 C 45.363281 39.957031 45.578125 40.519531 45.765625 41.117188 C 45.765625 41.117188 45.765625 41.121094 45.769531 41.121094 C 45.878906 41.460938 45.980469 41.808594 46.070312 42.171875 C 45.964844 42.1875 45.855469 42.207031 45.746094 42.230469 Z M 45.746094 42.230469 " fill-opacity="1" fill-rule="nonzero"/><path fill="#000000" d="M 65.96875 77.261719 C 63.742188 78.390625 61.960938 82.640625 61.960938 82.640625 C 62.945312 80.78125 64.394531 79.402344 66.472656 78.34375 C 73.460938 75.890625 79.480469 73.621094 82.433594 70.65625 C 82.554688 70.53125 82.617188 70.363281 82.605469 70.191406 C 82.484375 68.535156 80.769531 67.484375 78.78125 66.269531 C 76.71875 65.007812 74.382812 63.578125 72.929688 61.136719 C 72.84375 60.992188 72.703125 60.890625 72.539062 60.859375 C 72.375 60.824219 72.203125 60.859375 72.070312 60.957031 C 68.492188 63.539062 68.632812 69.316406 68.796875 76.007812 L 68.804688 76.25 C 67.90625 76.574219 66.984375 76.902344 66.042969 77.230469 C 66.015625 77.242188 65.992188 77.25 65.96875 77.261719 Z M 72.277344 62.328125 C 73.890625 64.671875 76.242188 66.113281 78.160156 67.285156 C 79.730469 68.246094 81.101562 69.082031 81.371094 70.027344 C 79.089844 72.171875 74.957031 73.984375 69.984375 75.820312 C 69.84375 70.132812 69.738281 64.761719 72.277344 62.328125 Z M 72.277344 62.328125 " fill-opacity="1" fill-rule="nonzero"/><path fill="#000000" d="M 92 65.054688 C 90.089844 61.445312 86.820312 57.863281 82.535156 54.683594 C 80.570312 48.648438 73.671875 46.34375 67.578125 44.308594 C 65.765625 43.703125 63.992188 43.109375 62.421875 42.445312 C 62.609375 42.054688 62.792969 41.667969 62.976562 41.289062 C 66.195312 34.601562 68.734375 29.324219 67.007812 23.664062 C 67.003906 23.644531 66.996094 23.628906 66.988281 23.613281 C 65.214844 19.261719 61.511719 16.878906 57.324219 17.398438 C 53.304688 17.894531 50.15625 20.871094 48.910156 25.183594 C 45.242188 20.324219 41.667969 16.441406 37.480469 19.03125 C 36.632812 19.554688 35.972656 20.34375 35.566406 21.308594 C 33.199219 26.984375 32.417969 32.898438 33.238281 38.890625 C 30.210938 43.53125 30.226562 48.785156 33.277344 54.945312 C 33.890625 60.65625 35.984375 66.3125 38.007812 71.789062 C 40.464844 78.421875 42.785156 84.695312 42.152344 90.238281 C 42.152344 90.238281 45.589844 87.335938 39.125 71.375 C 37.113281 65.933594 35.03125 60.3125 34.449219 54.714844 C 34.445312 54.644531 34.421875 54.574219 34.390625 54.511719 C 31.457031 48.640625 31.445312 43.6875 34.351562 39.367188 C 34.433594 39.242188 34.46875 39.09375 34.445312 38.949219 C 33.605469 33.09375 34.355469 27.3125 36.664062 21.769531 C 36.972656 21.035156 37.472656 20.4375 38.105469 20.042969 C 41.640625 17.855469 44.890625 21.765625 48.558594 26.703125 C 48.820312 27.054688 49.085938 27.414062 49.351562 27.773438 C 49.371094 27.804688 49.394531 27.832031 49.414062 27.859375 C 50.636719 29.519531 51.902344 31.238281 53.226562 32.808594 C 53.242188 32.828125 53.257812 32.84375 53.277344 32.859375 C 54.746094 34.242188 55.707031 35.902344 56.175781 37.960938 C 56.300781 38.507812 56.390625 39.078125 56.445312 39.679688 C 56.59375 41.238281 57.382812 45.203125 57.382812 45.203125 C 57.609375 43.714844 57.71875 42.34375 57.710938 41.082031 C 58.578125 41.835938 59.648438 42.476562 60.855469 43.050781 C 61.1875 43.207031 61.527344 43.359375 61.878906 43.507812 C 63.515625 44.207031 65.335938 44.816406 67.199219 45.4375 C 73.371094 47.5 79.753906 49.632812 81.453125 55.222656 C 81.492188 55.34375 81.570312 55.449219 81.671875 55.527344 C 90.449219 61.980469 94.328125 69.628906 92.351562 76.546875 C 87.714844 78.496094 82.75 78.984375 78.359375 79.414062 C 73.664062 79.878906 69.953125 80.242188 68.300781 82.285156 C 68.25 82.34375 68.214844 82.414062 68.191406 82.492188 C 67.117188 86.140625 65.25 88.695312 62.523438 90.210938 C 62.523438 90.210938 67.617188 87.597656 68.914062 84.09375 L 68.914062 89.882812 L 70.105469 82.292969 C 71.832031 81.253906 74.957031 80.945312 78.476562 80.601562 C 82.808594 80.175781 88.199219 79.644531 93.082031 77.535156 C 93.238281 77.464844 93.363281 77.328125 93.414062 77.164062 C 94.628906 73.207031 94.152344 69.136719 92 65.054688 Z M 61.332031 41.957031 C 59.746094 41.199219 58.4375 40.332031 57.605469 39.25 C 57.273438 36.242188 56.125 33.910156 54.117188 32.015625 C 52.824219 30.480469 51.578125 28.789062 50.375 27.152344 C 50.191406 26.90625 50.007812 26.660156 49.824219 26.414062 C 50.914062 21.214844 54.554688 18.941406 57.46875 18.578125 C 61.089844 18.132812 64.308594 20.222656 65.875 24.039062 C 66.613281 26.472656 66.46875 28.882812 65.789062 31.417969 C 65.140625 31.183594 64.335938 31.335938 63.570312 31.863281 C 61.816406 33.277344 61.710938 36.089844 62.636719 36.675781 C 62.40625 34.96875 63.285156 33.511719 64.246094 32.847656 C 64.714844 32.523438 65.171875 32.417969 65.449219 32.566406 C 64.625 35.109375 63.332031 37.796875 61.902344 40.773438 C 61.714844 41.164062 61.523438 41.558594 61.332031 41.957031 Z M 61.332031 41.957031 " fill-opacity="1" fill-rule="nonzero"/><g fill="#000000" fill-opacity="1"><g transform="translate(90.887581, 80.033205)"><g><path d="M 6.5625 0 L 13.09375 0 L 13.09375 -0.484375 C 11.9375 -0.875 11.6875 -1.921875 11.6875 -4.4375 L 11.6875 -23.8125 L 12.703125 -23.8125 C 15.8125 -23.8125 17.390625 -22.9375 18.671875 -20.140625 L 19.09375 -20.203125 L 18.890625 -24.4375 L 0.703125 -24.4375 L 0.484375 -20.203125 L 0.90625 -20.140625 C 2.203125 -22.9375 3.765625 -23.8125 6.875 -23.8125 L 7.953125 -23.8125 L 7.953125 -4.4375 C 7.953125 -1.921875 7.71875 -0.875 6.5625 -0.484375 Z M 6.5625 0 "/></g></g></g><g fill="#000000" fill-opacity="1"><g transform="translate(110.436945, 80.033205)"><g><path d="M 1.640625 0 L 8.140625 0 L 8.140625 -0.484375 C 6.984375 -0.875 6.734375 -1.921875 6.734375 -4.4375 L 6.734375 -12.640625 L 18.890625 -12.640625 L 18.890625 -4.4375 C 18.890625 -1.921875 18.640625 -0.875 17.484375 -0.484375 L 17.484375 0 L 23.984375 0 L 23.984375 -0.484375 C 22.828125 -0.875 22.578125 -1.921875 22.578125 -4.4375 L 22.578125 -20 C 22.578125 -22.515625 22.828125 -23.5625 23.984375 -23.953125 L 23.984375 -24.4375 L 17.484375 -24.4375 L 17.484375 -23.953125 C 18.640625 -23.5625 18.890625 -22.515625 18.890625 -20 L 18.890625 -13.265625 L 6.734375 -13.265625 L 6.734375 -20 C 6.734375 -22.515625 6.984375 -23.5625 8.140625 -23.953125 L 8.140625 -24.4375 L 1.640625 -24.4375 L 1.640625 -23.953125 C 2.796875 -23.5625 3.03125 -22.515625 3.03125 -20 L 3.03125 -4.4375 C 3.03125 -1.921875 2.796875 -0.875 1.640625 -0.484375 Z M 1.640625 0 "/></g></g></g><g fill="#000000" fill-opacity="1"><g transform="translate(136.060572, 80.033205)"><g><path d="M 1.640625 0 L 19.296875 0 L 19.546875 -5.09375 L 19.09375 -5.171875 C 17.765625 -1.609375 15.359375 -0.5625 11.828125 -0.5625 L 8.484375 -0.5625 C 7.359375 -0.5625 6.734375 -1.1875 6.734375 -2.296875 L 6.734375 -12.84375 L 10.09375 -12.84375 C 14.34375 -12.84375 15.5625 -12 16.125 -10.1875 L 16.609375 -10.1875 L 16.609375 -16.0625 L 16.125 -16.0625 C 15.5625 -14.234375 14.34375 -13.40625 10.09375 -13.40625 L 6.734375 -13.40625 L 6.734375 -23.875 L 10.828125 -23.875 C 14.734375 -23.875 16.921875 -22.828125 18.328125 -19.40625 L 18.78125 -19.515625 L 18.390625 -24.4375 L 1.640625 -24.4375 L 1.640625 -23.953125 C 2.796875 -23.5625 3.03125 -22.515625 3.03125 -20 L 3.03125 -4.4375 C 3.03125 -1.921875 2.796875 -0.875 1.640625 -0.484375 Z M 1.640625 0 "/></g></g></g><g fill="#000000" fill-opacity="1"><g transform="translate(156.831761, 80.033205)"><g/></g></g><g fill="#000000" fill-opacity="1"><g transform="translate(163.813672, 80.033205)"><g><path d="M 1.640625 0 L 8.140625 0 L 8.140625 -0.484375 C 6.984375 -0.875 6.734375 -1.921875 6.734375 -4.4375 L 6.734375 -9.59375 L 8.453125 -9.59375 C 15.609375 -9.59375 18.75 -13.296875 18.75 -17.65625 C 18.75 -20.484375 16.921875 -24.4375 8.96875 -24.4375 L 1.640625 -24.4375 L 1.640625 -23.953125 C 2.796875 -23.5625 3.03125 -22.515625 3.03125 -20 L 3.03125 -4.4375 C 3.03125 -1.921875 2.796875 -0.875 1.640625 -0.484375 Z M 6.734375 -10.15625 L 6.734375 -23.8125 C 6.984375 -23.84375 7.46875 -23.875 7.8125 -23.875 C 13.328125 -23.875 14.796875 -19.75 14.796875 -16.75 C 14.796875 -12.8125 12.84375 -10.15625 8.265625 -10.15625 Z M 6.734375 -10.15625 "/></g></g></g><g fill="#000000" fill-opacity="1"><g transform="translate(183.328123, 80.033205)"><g><path d="M 1.640625 0 L 8.140625 0 L 8.140625 -0.484375 C 6.984375 -0.875 6.734375 -1.921875 6.734375 -4.4375 L 6.734375 -12.640625 L 18.890625 -12.640625 L 18.890625 -4.4375 C 18.890625 -1.921875 18.640625 -0.875 17.484375 -0.484375 L 17.484375 0 L 23.984375 0 L 23.984375 -0.484375 C 22.828125 -0.875 22.578125 -1.921875 22.578125 -4.4375 L 22.578125 -20 C 22.578125 -22.515625 22.828125 -23.5625 23.984375 -23.953125 L 23.984375 -24.4375 L 17.484375 -24.4375 L 17.484375 -23.953125 C 18.640625 -23.5625 18.890625 -22.515625 18.890625 -20 L 18.890625 -13.265625 L 6.734375 -13.265625 L 6.734375 -20 C 6.734375 -22.515625 6.984375 -23.5625 8.140625 -23.953125 L 8.140625 -24.4375 L 1.640625 -24.4375 L 1.640625 -23.953125 C 2.796875 -23.5625 3.03125 -22.515625 3.03125 -20 L 3.03125 -4.4375 C 3.03125 -1.921875 2.796875 -0.875 1.640625 -0.484375 Z M 1.640625 0 "/></g></g></g><g fill="#000000" fill-opacity="1"><g transform="translate(208.95175, 80.033205)"><g><path d="M 6.421875 0 L 12.953125 0 L 12.953125 -0.484375 C 11.796875 -0.875 11.546875 -1.921875 11.546875 -4.4375 L 11.546875 -11.171875 L 16.828125 -20.5625 C 18.046875 -22.765625 19.203125 -23.5625 20.25 -23.953125 L 20.25 -24.4375 L 15.75 -24.4375 L 15.75 -23.953125 C 17.171875 -23.671875 17.34375 -22.765625 16.125 -20.5625 L 11.421875 -12.25 L 6.8125 -20.5625 C 5.578125 -22.765625 4.890625 -23.5625 6.03125 -23.953125 L 6.03125 -24.4375 L -0.484375 -24.4375 L -0.484375 -23.953125 C 0.3125 -23.5625 1.4375 -22.765625 2.625 -20.5625 L 7.78125 -11.203125 L 7.8125 -4.4375 C 7.8125 -1.921875 7.578125 -0.875 6.421875 -0.484375 Z M 6.421875 0 "/></g></g></g><g fill="#000000" fill-opacity="1"><g transform="translate(228.605833, 80.033205)"><g><path d="M 9.984375 0.34375 C 14 0.34375 18.390625 -2.296875 18.390625 -7.09375 C 18.390625 -11.28125 14.171875 -12.84375 10.609375 -14.203125 C 7.8125 -15.328125 4.296875 -16.578125 4.296875 -19.6875 C 4.296875 -22.4375 6.5 -24.078125 9.28125 -24.078125 C 12.671875 -24.078125 15.640625 -22.125 17.0625 -18.53125 L 17.453125 -18.671875 L 17.3125 -23.21875 C 15.5 -24.125 13.1875 -24.671875 10.609375 -24.671875 C 5.125 -24.671875 1.640625 -21.984375 1.640625 -17.65625 C 1.640625 -13.609375 4.640625 -12.421875 8.234375 -10.921875 C 11.03125 -9.8125 15.53125 -8.203125 15.53125 -4.78125 C 15.53125 -1.921875 13.296875 -0.390625 10.890625 -0.390625 C 6.25 -0.390625 3.140625 -3.453125 1.671875 -7.4375 L 1.21875 -7.359375 L 1.359375 -2.125 C 3.140625 -0.796875 6.390625 0.34375 9.984375 0.34375 Z M 9.984375 0.34375 "/></g></g></g><g fill="#000000" fill-opacity="1"><g transform="translate(247.910826, 80.033205)"><g><path d="M 1.640625 0 L 8.140625 0 L 8.140625 -0.484375 C 6.984375 -0.875 6.734375 -1.921875 6.734375 -4.4375 L 6.734375 -20 C 6.734375 -22.515625 6.984375 -23.5625 8.140625 -23.953125 L 8.140625 -24.4375 L 1.640625 -24.4375 L 1.640625 -23.953125 C 2.796875 -23.5625 3.03125 -22.515625 3.03125 -20 L 3.03125 -4.4375 C 3.03125 -1.921875 2.796875 -0.875 1.640625 -0.484375 Z M 1.640625 0 "/></g></g></g><g fill="#000000" fill-opacity="1"><g transform="translate(257.685508, 80.033205)"><g><path d="M 14.375 0.34375 C 20.25 0.34375 26.84375 -3.59375 26.84375 -12.109375 C 26.84375 -20.671875 20.28125 -24.71875 14.375 -24.71875 C 6.984375 -24.71875 1.890625 -19.234375 1.890625 -12.328125 C 1.890625 -3.5625 8.453125 0.34375 14.375 0.34375 Z M 5.515625 -14.453125 C 5.125 -20.109375 7.8125 -23.8125 12.5625 -23.8125 C 18.609375 -23.8125 22.796875 -16.796875 23.3125 -9.359375 C 23.625 -4.75 21.71875 -0.734375 16.375 -0.734375 C 10.4375 -0.734375 6 -7.46875 5.515625 -14.453125 Z M 5.515625 -14.453125 "/></g></g></g><g fill="#000000" fill-opacity="1"><g transform="translate(95.921232, 95.247243)"><g><path d="M 2.4375 -6.109375 L 0.046875 -6.109375 L 0.046875 -6.984375 L 5.8125 -6.984375 L 5.8125 -6.109375 L 3.421875 -6.109375 L 3.421875 0 L 2.4375 0 Z M 2.4375 -6.109375 "/></g></g></g><g fill="#000000" fill-opacity="1"><g transform="translate(104.418819, 95.247243)"><g><path d="M 7.046875 -6.984375 L 7.046875 0 L 6.046875 0 L 6.046875 -3.109375 L 2.046875 -3.109375 L 2.046875 0 L 1.046875 0 L 1.046875 -6.984375 L 2.046875 -6.984375 L 2.046875 -3.984375 L 6.046875 -3.984375 L 6.046875 -6.984375 Z M 7.046875 -6.984375 "/></g></g></g><g fill="#000000" fill-opacity="1"><g transform="translate(115.160221, 95.247243)"><g><path d="M 6.109375 -0.875 L 6.109375 0 L 1.046875 0 L 1.046875 -6.984375 L 5.96875 -6.984375 L 5.96875 -6.109375 L 2.046875 -6.109375 L 2.046875 -3.96875 L 5.546875 -3.96875 L 5.546875 -3.125 L 2.046875 -3.125 L 2.046875 -0.875 Z M 6.109375 -0.875 "/></g></g></g><g fill="#000000" fill-opacity="1"><g transform="translate(124.485525, 95.247243)"><g><path d="M 5.71875 0 L 4.203125 -2.140625 C 4.015625 -2.128906 3.867188 -2.125 3.765625 -2.125 L 2.046875 -2.125 L 2.046875 0 L 1.046875 0 L 1.046875 -6.984375 L 3.765625 -6.984375 C 4.671875 -6.984375 5.378906 -6.765625 5.890625 -6.328125 C 6.410156 -5.898438 6.671875 -5.304688 6.671875 -4.546875 C 6.671875 -4.003906 6.535156 -3.546875 6.265625 -3.171875 C 6.003906 -2.796875 5.628906 -2.519531 5.140625 -2.34375 L 6.796875 0 Z M 3.734375 -2.96875 C 4.367188 -2.96875 4.851562 -3.101562 5.1875 -3.375 C 5.519531 -3.644531 5.6875 -4.035156 5.6875 -4.546875 C 5.6875 -5.046875 5.519531 -5.429688 5.1875 -5.703125 C 4.851562 -5.972656 4.367188 -6.109375 3.734375 -6.109375 L 2.046875 -6.109375 L 2.046875 -2.96875 Z M 3.734375 -2.96875 "/></g></g></g><g fill="#000000" fill-opacity="1"><g transform="translate(134.379265, 95.247243)"><g><path d="M 5.5 -1.75 L 1.78125 -1.75 L 1.015625 0 L -0.015625 0 L 3.15625 -6.984375 L 4.140625 -6.984375 L 7.3125 0 L 6.265625 0 Z M 5.140625 -2.546875 L 3.640625 -5.96875 L 2.140625 -2.546875 Z M 5.140625 -2.546875 "/></g></g></g><g fill="#000000" fill-opacity="1"><g transform="translate(144.32286, 95.247243)"><g><path d="M 3.765625 -6.984375 C 4.671875 -6.984375 5.378906 -6.765625 5.890625 -6.328125 C 6.410156 -5.898438 6.671875 -5.304688 6.671875 -4.546875 C 6.671875 -3.785156 6.410156 -3.1875 5.890625 -2.75 C 5.378906 -2.320312 4.671875 -2.109375 3.765625 -2.109375 L 2.046875 -2.109375 L 2.046875 0 L 1.046875 0 L 1.046875 -6.984375 Z M 3.734375 -2.984375 C 4.367188 -2.984375 4.851562 -3.113281 5.1875 -3.375 C 5.519531 -3.644531 5.6875 -4.035156 5.6875 -4.546875 C 5.6875 -5.046875 5.519531 -5.429688 5.1875 -5.703125 C 4.851562 -5.972656 4.367188 -6.109375 3.734375 -6.109375 L 2.046875 -6.109375 L 2.046875 -2.984375 Z M 3.734375 -2.984375 "/></g></g></g><g fill="#000000" fill-opacity="1"><g transform="translate(154.16673, 95.247243)"><g><path d="M 6.109375 -0.875 L 6.109375 0 L 1.046875 0 L 1.046875 -6.984375 L 5.96875 -6.984375 L 5.96875 -6.109375 L 2.046875 -6.109375 L 2.046875 -3.96875 L 5.546875 -3.96875 L 5.546875 -3.125 L 2.046875 -3.125 L 2.046875 -0.875 Z M 6.109375 -0.875 "/></g></g></g><g fill="#000000" fill-opacity="1"><g transform="translate(163.492036, 95.247243)"><g><path d="M 3.9375 0.078125 C 3.007812 0.078125 2.285156 -0.1875 1.765625 -0.71875 C 1.242188 -1.25 0.984375 -2.015625 0.984375 -3.015625 L 0.984375 -6.984375 L 1.984375 -6.984375 L 1.984375 -3.046875 C 1.984375 -1.554688 2.640625 -0.8125 3.953125 -0.8125 C 4.585938 -0.8125 5.070312 -0.992188 5.40625 -1.359375 C 5.75 -1.722656 5.921875 -2.285156 5.921875 -3.046875 L 5.921875 -6.984375 L 6.890625 -6.984375 L 6.890625 -3.015625 C 6.890625 -2.003906 6.628906 -1.234375 6.109375 -0.703125 C 5.585938 -0.179688 4.863281 0.078125 3.9375 0.078125 Z M 3.9375 0.078125 "/></g></g></g><g fill="#000000" fill-opacity="1"><g transform="translate(174.024014, 95.247243)"><g><path d="M 2.4375 -6.109375 L 0.046875 -6.109375 L 0.046875 -6.984375 L 5.8125 -6.984375 L 5.8125 -6.109375 L 3.421875 -6.109375 L 3.421875 0 L 2.4375 0 Z M 2.4375 -6.109375 "/></g></g></g><g fill="#000000" fill-opacity="1"><g transform="translate(182.521603, 95.247243)"><g><path d="M 1.046875 -6.984375 L 2.046875 -6.984375 L 2.046875 0 L 1.046875 0 Z M 1.046875 -6.984375 "/></g></g></g><g fill="#000000" fill-opacity="1"><g transform="translate(188.256812, 95.247243)"><g><path d="M 4.171875 0.078125 C 3.472656 0.078125 2.84375 -0.0703125 2.28125 -0.375 C 1.71875 -0.6875 1.273438 -1.113281 0.953125 -1.65625 C 0.640625 -2.195312 0.484375 -2.804688 0.484375 -3.484375 C 0.484375 -4.160156 0.640625 -4.769531 0.953125 -5.3125 C 1.273438 -5.851562 1.71875 -6.28125 2.28125 -6.59375 C 2.84375 -6.90625 3.472656 -7.0625 4.171875 -7.0625 C 4.722656 -7.0625 5.222656 -6.96875 5.671875 -6.78125 C 6.117188 -6.601562 6.503906 -6.332031 6.828125 -5.96875 L 6.1875 -5.34375 C 5.65625 -5.894531 5 -6.171875 4.21875 -6.171875 C 3.695312 -6.171875 3.226562 -6.050781 2.8125 -5.8125 C 2.394531 -5.582031 2.066406 -5.265625 1.828125 -4.859375 C 1.585938 -4.453125 1.46875 -3.992188 1.46875 -3.484375 C 1.46875 -2.984375 1.585938 -2.523438 1.828125 -2.109375 C 2.066406 -1.703125 2.394531 -1.382812 2.8125 -1.15625 C 3.226562 -0.925781 3.695312 -0.8125 4.21875 -0.8125 C 5 -0.8125 5.65625 -1.085938 6.1875 -1.640625 L 6.828125 -1.015625 C 6.503906 -0.660156 6.113281 -0.390625 5.65625 -0.203125 C 5.207031 -0.015625 4.710938 0.078125 4.171875 0.078125 Z M 4.171875 0.078125 "/></g></g></g><g fill="#000000" fill-opacity="1"><g transform="translate(198.110655, 95.247243)"><g/></g></g><g fill="#000000" fill-opacity="1"><g transform="translate(203.436995, 95.247243)"><g><path d="M 4.171875 0.078125 C 3.472656 0.078125 2.84375 -0.0703125 2.28125 -0.375 C 1.71875 -0.6875 1.273438 -1.113281 0.953125 -1.65625 C 0.640625 -2.195312 0.484375 -2.804688 0.484375 -3.484375 C 0.484375 -4.160156 0.640625 -4.769531 0.953125 -5.3125 C 1.273438 -5.851562 1.71875 -6.28125 2.28125 -6.59375 C 2.84375 -6.90625 3.472656 -7.0625 4.171875 -7.0625 C 4.722656 -7.0625 5.222656 -6.96875 5.671875 -6.78125 C 6.117188 -6.601562 6.503906 -6.332031 6.828125 -5.96875 L 6.1875 -5.34375 C 5.65625 -5.894531 5 -6.171875 4.21875 -6.171875 C 3.695312 -6.171875 3.226562 -6.050781 2.8125 -5.8125 C 2.394531 -5.582031 2.066406 -5.265625 1.828125 -4.859375 C 1.585938 -4.453125 1.46875 -3.992188 1.46875 -3.484375 C 1.46875 -2.984375 1.585938 -2.523438 1.828125 -2.109375 C 2.066406 -1.703125 2.394531 -1.382812 2.8125 -1.15625 C 3.226562 -0.925781 3.695312 -0.8125 4.21875 -0.8125 C 5 -0.8125 5.65625 -1.085938 6.1875 -1.640625 L 6.828125 -1.015625 C 6.503906 -0.660156 6.113281 -0.390625 5.65625 -0.203125 C 5.207031 -0.015625 4.710938 0.078125 4.171875 0.078125 Z M 4.171875 0.078125 "/></g></g></g><g fill="#000000" fill-opacity="1"><g transform="translate(213.290843, 95.247243)"><g><path d="M 1.046875 -6.984375 L 2.046875 -6.984375 L 2.046875 -0.875 L 5.828125 -0.875 L 5.828125 0 L 1.046875 0 Z M 1.046875 -6.984375 "/></g></g></g><g fill="#000000" fill-opacity="1"><g transform="translate(221.858236, 95.247243)"><g><path d="M 1.046875 -6.984375 L 2.046875 -6.984375 L 2.046875 0 L 1.046875 0 Z M 1.046875 -6.984375 "/></g></g></g><g fill="#000000" fill-opacity="1"><g transform="translate(227.593445, 95.247243)"><g><path d="M 7.046875 -6.984375 L 7.046875 0 L 6.234375 0 L 2.046875 -5.203125 L 2.046875 0 L 1.046875 0 L 1.046875 -6.984375 L 1.859375 -6.984375 L 6.046875 -1.78125 L 6.046875 -6.984375 Z M 7.046875 -6.984375 "/></g></g></g><g fill="#000000" fill-opacity="1"><g transform="translate(238.334848, 95.247243)"><g><path d="M 1.046875 -6.984375 L 2.046875 -6.984375 L 2.046875 0 L 1.046875 0 Z M 1.046875 -6.984375 "/></g></g></g><g fill="#000000" fill-opacity="1"><g transform="translate(244.070057, 95.247243)"><g><path d="M 4.171875 0.078125 C 3.472656 0.078125 2.84375 -0.0703125 2.28125 -0.375 C 1.71875 -0.6875 1.273438 -1.113281 0.953125 -1.65625 C 0.640625 -2.195312 0.484375 -2.804688 0.484375 -3.484375 C 0.484375 -4.160156 0.640625 -4.769531 0.953125 -5.3125 C 1.273438 -5.851562 1.71875 -6.28125 2.28125 -6.59375 C 2.84375 -6.90625 3.472656 -7.0625 4.171875 -7.0625 C 4.722656 -7.0625 5.222656 -6.96875 5.671875 -6.78125 C 6.117188 -6.601562 6.503906 -6.332031 6.828125 -5.96875 L 6.1875 -5.34375 C 5.65625 -5.894531 5 -6.171875 4.21875 -6.171875 C 3.695312 -6.171875 3.226562 -6.050781 2.8125 -5.8125 C 2.394531 -5.582031 2.066406 -5.265625 1.828125 -4.859375 C 1.585938 -4.453125 1.46875 -3.992188 1.46875 -3.484375 C 1.46875 -2.984375 1.585938 -2.523438 1.828125 -2.109375 C 2.066406 -1.703125 2.394531 -1.382812 2.8125 -1.15625 C 3.226562 -0.925781 3.695312 -0.8125 4.21875 -0.8125 C 5 -0.8125 5.65625 -1.085938 6.1875 -1.640625 L 6.828125 -1.015625 C 6.503906 -0.660156 6.113281 -0.390625 5.65625 -0.203125 C 5.207031 -0.015625 4.710938 0.078125 4.171875 0.078125 Z M 4.171875 0.078125 "/></g></g></g></svg>