<svg xmlns="http://www.w3.org/2000/svg" xmlns:xlink="http://www.w3.org/1999/xlink" width="403" zoomAndPan="magnify" viewBox="0 0 302.25 105.749997" height="141" preserveAspectRatio="xMidYMid meet" version="1.0"><defs><g/><clipPath id="54d5af2a26"><path d="M 0 0.0078125 L 99.503906 0.0078125 L 99.503906 99.507812 L 0 99.507812 Z M 0 0.0078125 " clip-rule="nonzero"/></clipPath></defs><g clip-path="url(#54d5af2a26)"><path fill="#bb2525" d="M 27.195312 99.695312 L 27.195312 72.5 L 0 72.5 L 0 27.203125 L 27.195312 27.203125 L 27.195312 0.0078125 L 72.492188 0.0078125 L 72.492188 27.203125 L 99.691406 27.203125 L 98.773438 57.496094 L 97.421875 29.472656 L 70.226562 29.472656 L 70.226562 2.273438 L 29.464844 2.273438 L 29.464844 29.472656 L 2.269531 29.472656 L 2.269531 70.230469 L 29.464844 70.230469 L 29.464844 97.429688 L 71.359375 97.429688 Z M 27.195312 99.695312 " fill-opacity="1" fill-rule="nonzero"/></g><path fill="#bb2525" d="M 52.53125 91.96875 C 52.53125 92.191406 52.453125 92.378906 52.296875 92.535156 C 52.140625 92.691406 51.949219 92.769531 51.726562 92.769531 C 51.507812 92.769531 51.316406 92.691406 51.160156 92.535156 C 51.003906 92.378906 50.925781 92.191406 50.925781 91.96875 C 50.925781 91.746094 51.003906 91.558594 51.160156 91.398438 C 51.316406 91.242188 51.507812 91.164062 51.726562 91.164062 C 51.949219 91.164062 52.140625 91.242188 52.296875 91.398438 C 52.453125 91.558594 52.53125 91.746094 52.53125 91.96875 Z M 52.53125 91.96875 " fill-opacity="1" fill-rule="nonzero"/><path fill="#bb2525" d="M 53.007812 88.296875 C 53.007812 88.5625 52.914062 88.789062 52.726562 88.980469 C 52.539062 89.167969 52.3125 89.261719 52.042969 89.261719 C 51.777344 89.261719 51.550781 89.167969 51.363281 88.980469 C 51.175781 88.789062 51.082031 88.5625 51.082031 88.296875 C 51.082031 88.03125 51.175781 87.804688 51.363281 87.613281 C 51.550781 87.425781 51.777344 87.332031 52.042969 87.332031 C 52.3125 87.332031 52.539062 87.425781 52.726562 87.613281 C 52.914062 87.804688 53.007812 88.03125 53.007812 88.296875 Z M 53.007812 88.296875 " fill-opacity="1" fill-rule="nonzero"/><path fill="#bb2525" d="M 53.222656 84.253906 C 53.222656 84.410156 53.191406 84.558594 53.132812 84.703125 C 53.070312 84.847656 52.988281 84.972656 52.875 85.085938 C 52.765625 85.195312 52.640625 85.28125 52.496094 85.339844 C 52.351562 85.398438 52.199219 85.429688 52.042969 85.429688 C 51.886719 85.429688 51.738281 85.398438 51.59375 85.339844 C 51.449219 85.28125 51.324219 85.195312 51.210938 85.085938 C 51.101562 84.972656 51.015625 84.847656 50.957031 84.703125 C 50.898438 84.558594 50.867188 84.410156 50.867188 84.253906 C 50.867188 84.097656 50.898438 83.945312 50.957031 83.800781 C 51.015625 83.65625 51.101562 83.53125 51.210938 83.421875 C 51.324219 83.308594 51.449219 83.226562 51.59375 83.164062 C 51.738281 83.105469 51.886719 83.074219 52.042969 83.074219 C 52.199219 83.074219 52.351562 83.105469 52.496094 83.164062 C 52.640625 83.226562 52.765625 83.308594 52.875 83.421875 C 52.988281 83.53125 53.070312 83.65625 53.132812 83.800781 C 53.191406 83.945312 53.222656 84.097656 53.222656 84.253906 Z M 53.222656 84.253906 " fill-opacity="1" fill-rule="nonzero"/><path fill="#bb2525" d="M 53.222656 79.34375 C 53.222656 79.5 53.191406 79.648438 53.132812 79.792969 C 53.070312 79.9375 52.988281 80.066406 52.875 80.175781 C 52.765625 80.285156 52.640625 80.371094 52.496094 80.429688 C 52.351562 80.488281 52.199219 80.519531 52.042969 80.519531 C 51.886719 80.519531 51.738281 80.488281 51.59375 80.429688 C 51.449219 80.371094 51.324219 80.285156 51.210938 80.175781 C 51.101562 80.066406 51.015625 79.9375 50.957031 79.792969 C 50.898438 79.648438 50.867188 79.5 50.867188 79.34375 C 50.867188 79.1875 50.898438 79.035156 50.957031 78.894531 C 51.015625 78.75 51.101562 78.621094 51.210938 78.511719 C 51.324219 78.402344 51.449219 78.316406 51.59375 78.257812 C 51.738281 78.195312 51.886719 78.167969 52.042969 78.167969 C 52.199219 78.167969 52.351562 78.195312 52.496094 78.257812 C 52.640625 78.316406 52.765625 78.402344 52.875 78.511719 C 52.988281 78.621094 53.070312 78.75 53.132812 78.894531 C 53.191406 79.035156 53.222656 79.1875 53.222656 79.34375 Z M 53.222656 79.34375 " fill-opacity="1" fill-rule="nonzero"/><path fill="#bb2525" d="M 52.375 50.921875 C 52.375 51.144531 52.292969 51.335938 52.136719 51.492188 C 51.980469 51.648438 51.792969 51.726562 51.570312 51.726562 C 51.347656 51.726562 51.160156 51.648438 51.003906 51.492188 C 50.84375 51.335938 50.765625 51.144531 50.765625 50.921875 C 50.765625 50.703125 50.84375 50.511719 51.003906 50.355469 C 51.160156 50.199219 51.347656 50.121094 51.570312 50.121094 C 51.792969 50.121094 51.980469 50.199219 52.136719 50.355469 C 52.292969 50.511719 52.375 50.703125 52.375 50.921875 Z M 52.375 50.921875 " fill-opacity="1" fill-rule="nonzero"/><path fill="#bb2525" d="M 52.058594 54.59375 C 52.058594 54.859375 51.964844 55.089844 51.777344 55.277344 C 51.589844 55.464844 51.363281 55.558594 51.09375 55.558594 C 50.828125 55.558594 50.601562 55.464844 50.414062 55.277344 C 50.226562 55.089844 50.132812 54.859375 50.132812 54.59375 C 50.132812 54.328125 50.226562 54.101562 50.414062 53.914062 C 50.601562 53.722656 50.828125 53.628906 51.09375 53.628906 C 51.363281 53.628906 51.589844 53.722656 51.777344 53.914062 C 51.964844 54.101562 52.058594 54.328125 52.058594 54.59375 Z M 52.058594 54.59375 " fill-opacity="1" fill-rule="nonzero"/><path fill="#bb2525" d="M 51.957031 58.640625 C 51.957031 58.796875 51.925781 58.945312 51.867188 59.089844 C 51.808594 59.234375 51.722656 59.359375 51.613281 59.472656 C 51.5 59.582031 51.375 59.667969 51.230469 59.726562 C 51.085938 59.785156 50.933594 59.816406 50.78125 59.816406 C 50.625 59.816406 50.472656 59.785156 50.328125 59.726562 C 50.183594 59.667969 50.058594 59.582031 49.949219 59.472656 C 49.835938 59.359375 49.75 59.234375 49.691406 59.089844 C 49.632812 58.945312 49.601562 58.796875 49.601562 58.640625 C 49.601562 58.484375 49.632812 58.332031 49.691406 58.1875 C 49.75 58.042969 49.835938 57.917969 49.949219 57.808594 C 50.058594 57.695312 50.183594 57.613281 50.328125 57.550781 C 50.472656 57.492188 50.625 57.460938 50.78125 57.460938 C 50.933594 57.460938 51.085938 57.492188 51.230469 57.550781 C 51.375 57.613281 51.5 57.695312 51.613281 57.808594 C 51.722656 57.917969 51.808594 58.042969 51.867188 58.1875 C 51.925781 58.332031 51.957031 58.484375 51.957031 58.640625 Z M 51.957031 58.640625 " fill-opacity="1" fill-rule="nonzero"/><path fill="#bb2525" d="M 52.113281 63.546875 C 52.113281 63.703125 52.085938 63.855469 52.023438 64 C 51.964844 64.144531 51.878906 64.269531 51.769531 64.378906 C 51.660156 64.492188 51.53125 64.574219 51.386719 64.636719 C 51.242188 64.695312 51.09375 64.726562 50.9375 64.726562 C 50.78125 64.726562 50.632812 64.695312 50.488281 64.636719 C 50.34375 64.574219 50.214844 64.492188 50.105469 64.378906 C 49.996094 64.269531 49.910156 64.144531 49.851562 64 C 49.789062 63.855469 49.761719 63.703125 49.761719 63.546875 C 49.761719 63.390625 49.789062 63.242188 49.851562 63.097656 C 49.910156 62.953125 49.996094 62.828125 50.105469 62.714844 C 50.214844 62.605469 50.34375 62.519531 50.488281 62.460938 C 50.632812 62.402344 50.78125 62.371094 50.9375 62.371094 C 51.09375 62.371094 51.242188 62.402344 51.386719 62.460938 C 51.53125 62.519531 51.660156 62.605469 51.769531 62.714844 C 51.878906 62.828125 51.964844 62.953125 52.023438 63.097656 C 52.085938 63.242188 52.113281 63.390625 52.113281 63.546875 Z M 52.113281 63.546875 " fill-opacity="1" fill-rule="nonzero"/><path fill="#bb2525" d="M 53.039062 74.175781 C 53.039062 74.371094 53.003906 74.558594 52.929688 74.738281 C 52.851562 74.917969 52.746094 75.078125 52.609375 75.214844 C 52.472656 75.351562 52.3125 75.460938 52.132812 75.535156 C 51.953125 75.609375 51.765625 75.644531 51.570312 75.644531 C 51.375 75.644531 51.1875 75.609375 51.007812 75.535156 C 50.828125 75.460938 50.667969 75.351562 50.53125 75.214844 C 50.394531 75.078125 50.285156 74.917969 50.210938 74.738281 C 50.136719 74.558594 50.101562 74.371094 50.101562 74.175781 C 50.101562 73.980469 50.136719 73.792969 50.210938 73.613281 C 50.285156 73.433594 50.394531 73.273438 50.53125 73.136719 C 50.667969 73 50.828125 72.894531 51.007812 72.816406 C 51.1875 72.742188 51.375 72.707031 51.570312 72.707031 C 51.765625 72.707031 51.953125 72.742188 52.132812 72.816406 C 52.3125 72.894531 52.472656 73 52.609375 73.136719 C 52.746094 73.273438 52.851562 73.433594 52.929688 73.613281 C 53.003906 73.792969 53.039062 73.980469 53.039062 74.175781 Z M 53.039062 74.175781 " fill-opacity="1" fill-rule="nonzero"/><path fill="#bb2525" d="M 52.722656 68.714844 C 52.722656 68.910156 52.6875 69.097656 52.613281 69.277344 C 52.539062 69.457031 52.429688 69.617188 52.292969 69.753906 C 52.15625 69.890625 51.996094 70 51.816406 70.074219 C 51.636719 70.148438 51.449219 70.183594 51.253906 70.183594 C 51.058594 70.183594 50.871094 70.148438 50.691406 70.074219 C 50.511719 70 50.351562 69.890625 50.214844 69.753906 C 50.078125 69.617188 49.96875 69.457031 49.894531 69.277344 C 49.820312 69.097656 49.785156 68.910156 49.785156 68.714844 C 49.785156 68.519531 49.820312 68.332031 49.894531 68.152344 C 49.96875 67.972656 50.078125 67.8125 50.214844 67.675781 C 50.351562 67.539062 50.511719 67.433594 50.691406 67.359375 C 50.871094 67.28125 51.058594 67.246094 51.253906 67.246094 C 51.449219 67.246094 51.636719 67.28125 51.816406 67.359375 C 51.996094 67.433594 52.15625 67.539062 52.292969 67.675781 C 52.429688 67.8125 52.539062 67.972656 52.613281 68.152344 C 52.6875 68.332031 52.722656 68.519531 52.722656 68.714844 Z M 52.722656 68.714844 " fill-opacity="1" fill-rule="nonzero"/><path fill="#141e46" d="M 37.160156 46.046875 C 37.261719 45.992188 37.363281 45.9375 37.464844 45.882812 C 37.269531 45.964844 37.160156 46.023438 37.160156 46.046875 Z M 37.160156 46.046875 " fill-opacity="1" fill-rule="nonzero"/><path fill="#141e46" d="M 40.457031 35.875 C 40.496094 35.910156 40.539062 35.949219 40.582031 35.984375 C 40.519531 35.910156 40.472656 35.875 40.457031 35.875 Z M 40.457031 35.875 " fill-opacity="1" fill-rule="nonzero"/><path fill="#141e46" d="M 46.785156 34.113281 C 46.804688 34.015625 46.796875 33.914062 46.765625 33.820312 C 46.496094 31.5625 41.460938 28.113281 38.921875 27.417969 C 44.695312 31.324219 43.511719 37.519531 42.875 37.789062 C 42.363281 37.210938 41.195312 36.488281 40.582031 35.984375 C 41.277344 36.777344 44.351562 41.683594 44.15625 42.425781 C 44.148438 42.457031 44.171875 42.492188 44.179688 42.523438 C 42.449219 43.054688 39.859375 44.578125 37.464844 45.878906 C 39.007812 45.230469 45.882812 43.054688 45.929688 43.335938 C 46.003906 43.710938 48.265625 48.335938 48.265625 48.335938 C 48.207031 47.957031 46.265625 40.023438 45.871094 39.109375 Z M 45.335938 42.230469 C 45.328125 42.210938 45.324219 42.191406 45.320312 42.167969 C 45.234375 41.808594 45.125 41.460938 44.992188 41.121094 C 44.734375 40.453125 44.394531 39.828125 44.007812 39.246094 C 43.917969 39.113281 43.828125 38.984375 43.734375 38.855469 C 43.753906 38.8125 43.773438 38.769531 43.792969 38.726562 C 44.617188 36.796875 44.707031 34.546875 44.054688 31.933594 L 44.054688 31.929688 C 44.046875 31.90625 44.042969 31.882812 44.035156 31.855469 C 44.25 32.042969 44.449219 32.238281 44.632812 32.449219 C 45.042969 32.914062 45.367188 33.4375 45.585938 34.050781 L 44.667969 39.074219 C 44.644531 39.191406 44.660156 39.3125 44.710938 39.425781 C 44.949219 39.957031 45.164062 40.523438 45.351562 41.117188 C 45.355469 41.117188 45.355469 41.121094 45.355469 41.121094 C 45.464844 41.460938 45.566406 41.8125 45.660156 42.171875 C 45.554688 42.191406 45.445312 42.210938 45.335938 42.230469 Z M 45.335938 42.230469 " fill-opacity="1" fill-rule="nonzero"/><path fill="#141e46" d="M 65.554688 77.257812 C 63.328125 78.386719 61.546875 82.636719 61.546875 82.636719 C 62.53125 80.777344 63.980469 79.398438 66.058594 78.339844 C 73.046875 75.890625 79.066406 73.617188 82.015625 70.652344 C 82.136719 70.53125 82.199219 70.363281 82.1875 70.191406 C 82.066406 68.53125 80.351562 67.484375 78.367188 66.269531 C 76.304688 65.007812 73.964844 63.574219 72.511719 61.136719 C 72.429688 60.992188 72.285156 60.890625 72.121094 60.855469 C 71.957031 60.824219 71.789062 60.859375 71.652344 60.957031 C 68.078125 63.539062 68.21875 69.316406 68.382812 76.003906 L 68.386719 76.25 C 67.488281 76.574219 66.566406 76.898438 65.628906 77.230469 C 65.601562 77.238281 65.578125 77.246094 65.554688 77.257812 Z M 71.863281 62.328125 C 73.472656 64.671875 75.828125 66.109375 77.746094 67.285156 C 79.3125 68.242188 80.683594 69.082031 80.953125 70.023438 C 78.675781 72.171875 74.539062 73.984375 69.570312 75.816406 C 69.429688 70.128906 69.320312 64.761719 71.863281 62.328125 Z M 71.863281 62.328125 " fill-opacity="1" fill-rule="nonzero"/><path fill="#141e46" d="M 91.582031 65.054688 C 89.671875 61.445312 86.402344 57.863281 82.117188 54.683594 C 80.15625 48.652344 73.257812 46.34375 67.164062 44.308594 C 65.351562 43.703125 63.578125 43.113281 62.007812 42.445312 C 62.195312 42.054688 62.378906 41.671875 62.5625 41.289062 C 65.78125 34.605469 68.320312 29.324219 66.59375 23.667969 C 66.589844 23.648438 66.582031 23.632812 66.574219 23.617188 C 64.800781 19.265625 61.097656 16.886719 56.910156 17.402344 C 52.894531 17.898438 49.742188 20.875 48.496094 25.1875 C 44.832031 20.328125 41.253906 16.445312 37.066406 19.035156 C 36.222656 19.558594 35.558594 20.347656 35.15625 21.3125 C 32.789062 26.984375 32.007812 32.898438 32.828125 38.894531 C 29.800781 43.53125 29.816406 48.789062 32.867188 54.945312 C 33.480469 60.65625 35.574219 66.3125 37.597656 71.785156 C 40.050781 78.417969 42.371094 84.691406 41.738281 90.234375 C 41.738281 90.234375 45.175781 87.332031 38.714844 71.371094 C 36.703125 65.933594 34.621094 60.308594 34.039062 54.714844 C 34.03125 54.644531 34.011719 54.574219 33.980469 54.511719 C 31.046875 48.640625 31.035156 43.691406 33.941406 39.367188 C 34.023438 39.246094 34.058594 39.097656 34.035156 38.949219 C 33.195312 33.09375 33.941406 27.316406 36.253906 21.773438 C 36.5625 21.039062 37.058594 20.441406 37.695312 20.046875 C 41.230469 17.859375 44.476562 21.769531 48.144531 26.707031 C 48.40625 27.058594 48.671875 27.417969 48.9375 27.777344 C 48.960938 27.808594 48.980469 27.835938 49 27.863281 C 50.226562 29.523438 51.492188 31.238281 52.816406 32.8125 C 52.828125 32.828125 52.847656 32.84375 52.863281 32.863281 C 54.335938 34.242188 55.292969 35.90625 55.761719 37.964844 C 55.886719 38.507812 55.976562 39.082031 56.035156 39.683594 C 56.179688 41.238281 56.96875 45.207031 56.96875 45.207031 C 57.195312 43.714844 57.308594 42.34375 57.296875 41.082031 C 58.164062 41.835938 59.234375 42.476562 60.441406 43.050781 C 60.773438 43.207031 61.113281 43.363281 61.464844 43.507812 C 63.097656 44.207031 64.921875 44.816406 66.785156 45.4375 C 72.957031 47.5 79.335938 49.632812 81.039062 55.222656 C 81.074219 55.34375 81.152344 55.449219 81.253906 55.527344 C 90.03125 61.980469 93.910156 69.625 91.933594 76.546875 C 87.300781 78.492188 82.332031 78.980469 77.941406 79.414062 C 73.246094 79.875 69.539062 80.238281 67.886719 82.28125 C 67.835938 82.339844 67.796875 82.410156 67.777344 82.488281 C 66.703125 86.136719 64.832031 88.691406 62.109375 90.207031 C 62.109375 90.207031 67.203125 87.59375 68.5 84.089844 L 68.5 89.878906 L 69.691406 82.289062 C 71.417969 81.25 74.539062 80.945312 78.058594 80.597656 C 82.394531 80.171875 87.785156 79.640625 92.664062 77.53125 C 92.824219 77.460938 92.945312 77.324219 92.996094 77.160156 C 94.210938 73.207031 93.734375 69.132812 91.582031 65.054688 Z M 60.917969 41.960938 C 59.332031 41.199219 58.023438 40.332031 57.195312 39.25 C 56.859375 36.246094 55.710938 33.910156 53.703125 32.015625 C 52.414062 30.484375 51.167969 28.792969 49.960938 27.15625 C 49.777344 26.910156 49.597656 26.660156 49.414062 26.417969 C 50.5 21.21875 54.140625 18.945312 57.054688 18.585938 C 60.675781 18.136719 63.894531 20.226562 65.460938 24.039062 C 66.199219 26.476562 66.054688 28.886719 65.375 31.421875 C 64.722656 31.183594 63.921875 31.339844 63.15625 31.867188 C 61.402344 33.28125 61.296875 36.09375 62.222656 36.679688 C 61.992188 34.972656 62.871094 33.511719 63.832031 32.847656 C 64.300781 32.523438 64.757812 32.421875 65.035156 32.570312 C 64.210938 35.113281 62.917969 37.800781 61.488281 40.773438 C 61.300781 41.164062 61.109375 41.558594 60.917969 41.960938 Z M 60.917969 41.960938 " fill-opacity="1" fill-rule="nonzero"/><g fill="#141e46" fill-opacity="1"><g transform="translate(90.470141, 80.030023)"><g><path d="M 6.5625 0 L 13.09375 0 L 13.09375 -0.484375 C 11.9375 -0.875 11.6875 -1.921875 11.6875 -4.4375 L 11.6875 -23.8125 L 12.703125 -23.8125 C 15.8125 -23.8125 17.390625 -22.9375 18.671875 -20.140625 L 19.09375 -20.203125 L 18.890625 -24.4375 L 0.703125 -24.4375 L 0.484375 -20.203125 L 0.90625 -20.140625 C 2.203125 -22.9375 3.765625 -23.8125 6.875 -23.8125 L 7.953125 -23.8125 L 7.953125 -4.4375 C 7.953125 -1.921875 7.71875 -0.875 6.5625 -0.484375 Z M 6.5625 0 "/></g></g></g><g fill="#141e46" fill-opacity="1"><g transform="translate(110.017217, 80.030023)"><g><path d="M 1.640625 0 L 8.140625 0 L 8.140625 -0.484375 C 6.984375 -0.875 6.734375 -1.921875 6.734375 -4.4375 L 6.734375 -12.640625 L 18.890625 -12.640625 L 18.890625 -4.4375 C 18.890625 -1.921875 18.640625 -0.875 17.484375 -0.484375 L 17.484375 0 L 23.984375 0 L 23.984375 -0.484375 C 22.828125 -0.875 22.578125 -1.921875 22.578125 -4.4375 L 22.578125 -20 C 22.578125 -22.515625 22.828125 -23.5625 23.984375 -23.953125 L 23.984375 -24.4375 L 17.484375 -24.4375 L 17.484375 -23.953125 C 18.640625 -23.5625 18.890625 -22.515625 18.890625 -20 L 18.890625 -13.265625 L 6.734375 -13.265625 L 6.734375 -20 C 6.734375 -22.515625 6.984375 -23.5625 8.140625 -23.953125 L 8.140625 -24.4375 L 1.640625 -24.4375 L 1.640625 -23.953125 C 2.796875 -23.5625 3.03125 -22.515625 3.03125 -20 L 3.03125 -4.4375 C 3.03125 -1.921875 2.796875 -0.875 1.640625 -0.484375 Z M 1.640625 0 "/></g></g></g><g fill="#141e46" fill-opacity="1"><g transform="translate(135.637845, 80.030023)"><g><path d="M 1.640625 0 L 19.296875 0 L 19.546875 -5.09375 L 19.09375 -5.171875 C 17.765625 -1.609375 15.359375 -0.5625 11.828125 -0.5625 L 8.484375 -0.5625 C 7.359375 -0.5625 6.734375 -1.1875 6.734375 -2.296875 L 6.734375 -12.84375 L 10.09375 -12.84375 C 14.34375 -12.84375 15.5625 -12 16.125 -10.1875 L 16.609375 -10.1875 L 16.609375 -16.0625 L 16.125 -16.0625 C 15.5625 -14.234375 14.34375 -13.40625 10.09375 -13.40625 L 6.734375 -13.40625 L 6.734375 -23.875 L 10.828125 -23.875 C 14.734375 -23.875 16.921875 -22.828125 18.328125 -19.40625 L 18.78125 -19.515625 L 18.390625 -24.4375 L 1.640625 -24.4375 L 1.640625 -23.953125 C 2.796875 -23.5625 3.03125 -22.515625 3.03125 -20 L 3.03125 -4.4375 C 3.03125 -1.921875 2.796875 -0.875 1.640625 -0.484375 Z M 1.640625 0 "/></g></g></g><g fill="#141e46" fill-opacity="1"><g transform="translate(156.406602, 80.030023)"><g/></g></g><g fill="#141e46" fill-opacity="1"><g transform="translate(163.387696, 80.030023)"><g><path d="M 1.640625 0 L 8.140625 0 L 8.140625 -0.484375 C 6.984375 -0.875 6.734375 -1.921875 6.734375 -4.4375 L 6.734375 -9.59375 L 8.453125 -9.59375 C 15.609375 -9.59375 18.75 -13.296875 18.75 -17.65625 C 18.75 -20.484375 16.921875 -24.4375 8.96875 -24.4375 L 1.640625 -24.4375 L 1.640625 -23.953125 C 2.796875 -23.5625 3.03125 -22.515625 3.03125 -20 L 3.03125 -4.4375 C 3.03125 -1.921875 2.796875 -0.875 1.640625 -0.484375 Z M 6.734375 -10.15625 L 6.734375 -23.8125 C 6.984375 -23.84375 7.46875 -23.875 7.8125 -23.875 C 13.328125 -23.875 14.796875 -19.75 14.796875 -16.75 C 14.796875 -12.8125 12.84375 -10.15625 8.265625 -10.15625 Z M 6.734375 -10.15625 "/></g></g></g><g fill="#141e46" fill-opacity="1"><g transform="translate(182.899863, 80.030023)"><g><path d="M 1.640625 0 L 8.140625 0 L 8.140625 -0.484375 C 6.984375 -0.875 6.734375 -1.921875 6.734375 -4.4375 L 6.734375 -12.640625 L 18.890625 -12.640625 L 18.890625 -4.4375 C 18.890625 -1.921875 18.640625 -0.875 17.484375 -0.484375 L 17.484375 0 L 23.984375 0 L 23.984375 -0.484375 C 22.828125 -0.875 22.578125 -1.921875 22.578125 -4.4375 L 22.578125 -20 C 22.578125 -22.515625 22.828125 -23.5625 23.984375 -23.953125 L 23.984375 -24.4375 L 17.484375 -24.4375 L 17.484375 -23.953125 C 18.640625 -23.5625 18.890625 -22.515625 18.890625 -20 L 18.890625 -13.265625 L 6.734375 -13.265625 L 6.734375 -20 C 6.734375 -22.515625 6.984375 -23.5625 8.140625 -23.953125 L 8.140625 -24.4375 L 1.640625 -24.4375 L 1.640625 -23.953125 C 2.796875 -23.5625 3.03125 -22.515625 3.03125 -20 L 3.03125 -4.4375 C 3.03125 -1.921875 2.796875 -0.875 1.640625 -0.484375 Z M 1.640625 0 "/></g></g></g><g fill="#141e46" fill-opacity="1"><g transform="translate(208.520491, 80.030023)"><g><path d="M 6.421875 0 L 12.953125 0 L 12.953125 -0.484375 C 11.796875 -0.875 11.546875 -1.921875 11.546875 -4.4375 L 11.546875 -11.171875 L 16.828125 -20.5625 C 18.046875 -22.765625 19.203125 -23.5625 20.25 -23.953125 L 20.25 -24.4375 L 15.75 -24.4375 L 15.75 -23.953125 C 17.171875 -23.671875 17.34375 -22.765625 16.125 -20.5625 L 11.421875 -12.25 L 6.8125 -20.5625 C 5.578125 -22.765625 4.890625 -23.5625 6.03125 -23.953125 L 6.03125 -24.4375 L -0.484375 -24.4375 L -0.484375 -23.953125 C 0.3125 -23.5625 1.4375 -22.765625 2.625 -20.5625 L 7.78125 -11.203125 L 7.8125 -4.4375 C 7.8125 -1.921875 7.578125 -0.875 6.421875 -0.484375 Z M 6.421875 0 "/></g></g></g><g fill="#141e46" fill-opacity="1"><g transform="translate(228.172273, 80.030023)"><g><path d="M 9.984375 0.34375 C 14 0.34375 18.390625 -2.296875 18.390625 -7.09375 C 18.390625 -11.28125 14.171875 -12.84375 10.609375 -14.203125 C 7.8125 -15.328125 4.296875 -16.578125 4.296875 -19.6875 C 4.296875 -22.4375 6.5 -24.078125 9.28125 -24.078125 C 12.671875 -24.078125 15.640625 -22.125 17.0625 -18.53125 L 17.453125 -18.671875 L 17.3125 -23.21875 C 15.5 -24.125 13.1875 -24.671875 10.609375 -24.671875 C 5.125 -24.671875 1.640625 -21.984375 1.640625 -17.65625 C 1.640625 -13.609375 4.640625 -12.421875 8.234375 -10.921875 C 11.03125 -9.8125 15.53125 -8.203125 15.53125 -4.78125 C 15.53125 -1.921875 13.296875 -0.390625 10.890625 -0.390625 C 6.25 -0.390625 3.140625 -3.453125 1.671875 -7.4375 L 1.21875 -7.359375 L 1.359375 -2.125 C 3.140625 -0.796875 6.390625 0.34375 9.984375 0.34375 Z M 9.984375 0.34375 "/></g></g></g><g fill="#141e46" fill-opacity="1"><g transform="translate(247.475006, 80.030023)"><g><path d="M 1.640625 0 L 8.140625 0 L 8.140625 -0.484375 C 6.984375 -0.875 6.734375 -1.921875 6.734375 -4.4375 L 6.734375 -20 C 6.734375 -22.515625 6.984375 -23.5625 8.140625 -23.953125 L 8.140625 -24.4375 L 1.640625 -24.4375 L 1.640625 -23.953125 C 2.796875 -23.5625 3.03125 -22.515625 3.03125 -20 L 3.03125 -4.4375 C 3.03125 -1.921875 2.796875 -0.875 1.640625 -0.484375 Z M 1.640625 0 "/></g></g></g><g fill="#141e46" fill-opacity="1"><g transform="translate(257.248544, 80.030023)"><g><path d="M 14.375 0.34375 C 20.25 0.34375 26.84375 -3.59375 26.84375 -12.109375 C 26.84375 -20.671875 20.28125 -24.71875 14.375 -24.71875 C 6.984375 -24.71875 1.890625 -19.234375 1.890625 -12.328125 C 1.890625 -3.5625 8.453125 0.34375 14.375 0.34375 Z M 5.515625 -14.453125 C 5.125 -20.109375 7.8125 -23.8125 12.5625 -23.8125 C 18.609375 -23.8125 22.796875 -16.796875 23.3125 -9.359375 C 23.625 -4.75 21.71875 -0.734375 16.375 -0.734375 C 10.4375 -0.734375 6 -7.46875 5.515625 -14.453125 Z M 5.515625 -14.453125 "/></g></g></g><g fill="#bb2525" fill-opacity="1"><g transform="translate(95.503203, 95.24228)"><g><path d="M 2.4375 -6.109375 L 0.046875 -6.109375 L 0.046875 -6.984375 L 5.8125 -6.984375 L 5.8125 -6.109375 L 3.421875 -6.109375 L 3.421875 0 L 2.4375 0 Z M 2.4375 -6.109375 "/></g></g></g><g fill="#bb2525" fill-opacity="1"><g transform="translate(103.999796, 95.24228)"><g><path d="M 7.046875 -6.984375 L 7.046875 0 L 6.046875 0 L 6.046875 -3.109375 L 2.046875 -3.109375 L 2.046875 0 L 1.046875 0 L 1.046875 -6.984375 L 2.046875 -6.984375 L 2.046875 -3.984375 L 6.046875 -3.984375 L 6.046875 -6.984375 Z M 7.046875 -6.984375 "/></g></g></g><g fill="#bb2525" fill-opacity="1"><g transform="translate(114.739941, 95.24228)"><g><path d="M 6.109375 -0.875 L 6.109375 0 L 1.046875 0 L 1.046875 -6.984375 L 5.96875 -6.984375 L 5.96875 -6.109375 L 2.046875 -6.109375 L 2.046875 -3.96875 L 5.546875 -3.96875 L 5.546875 -3.125 L 2.046875 -3.125 L 2.046875 -0.875 Z M 6.109375 -0.875 "/></g></g></g><g fill="#bb2525" fill-opacity="1"><g transform="translate(124.064153, 95.24228)"><g><path d="M 5.71875 0 L 4.203125 -2.140625 C 4.015625 -2.128906 3.867188 -2.125 3.765625 -2.125 L 2.046875 -2.125 L 2.046875 0 L 1.046875 0 L 1.046875 -6.984375 L 3.765625 -6.984375 C 4.671875 -6.984375 5.378906 -6.765625 5.890625 -6.328125 C 6.410156 -5.898438 6.671875 -5.304688 6.671875 -4.546875 C 6.671875 -4.003906 6.535156 -3.546875 6.265625 -3.171875 C 6.003906 -2.796875 5.628906 -2.519531 5.140625 -2.34375 L 6.796875 0 Z M 3.734375 -2.96875 C 4.367188 -2.96875 4.851562 -3.101562 5.1875 -3.375 C 5.519531 -3.644531 5.6875 -4.035156 5.6875 -4.546875 C 5.6875 -5.046875 5.519531 -5.429688 5.1875 -5.703125 C 4.851562 -5.972656 4.367188 -6.109375 3.734375 -6.109375 L 2.046875 -6.109375 L 2.046875 -2.96875 Z M 3.734375 -2.96875 "/></g></g></g><g fill="#bb2525" fill-opacity="1"><g transform="translate(133.956735, 95.24228)"><g><path d="M 5.5 -1.75 L 1.78125 -1.75 L 1.015625 0 L -0.015625 0 L 3.15625 -6.984375 L 4.140625 -6.984375 L 7.3125 0 L 6.265625 0 Z M 5.140625 -2.546875 L 3.640625 -5.96875 L 2.140625 -2.546875 Z M 5.140625 -2.546875 "/></g></g></g><g fill="#bb2525" fill-opacity="1"><g transform="translate(143.899166, 95.24228)"><g><path d="M 3.765625 -6.984375 C 4.671875 -6.984375 5.378906 -6.765625 5.890625 -6.328125 C 6.410156 -5.898438 6.671875 -5.304688 6.671875 -4.546875 C 6.671875 -3.785156 6.410156 -3.1875 5.890625 -2.75 C 5.378906 -2.320312 4.671875 -2.109375 3.765625 -2.109375 L 2.046875 -2.109375 L 2.046875 0 L 1.046875 0 L 1.046875 -6.984375 Z M 3.734375 -2.984375 C 4.367188 -2.984375 4.851562 -3.113281 5.1875 -3.375 C 5.519531 -3.644531 5.6875 -4.035156 5.6875 -4.546875 C 5.6875 -5.046875 5.519531 -5.429688 5.1875 -5.703125 C 4.851562 -5.972656 4.367188 -6.109375 3.734375 -6.109375 L 2.046875 -6.109375 L 2.046875 -2.984375 Z M 3.734375 -2.984375 "/></g></g></g><g fill="#bb2525" fill-opacity="1"><g transform="translate(153.741884, 95.24228)"><g><path d="M 6.109375 -0.875 L 6.109375 0 L 1.046875 0 L 1.046875 -6.984375 L 5.96875 -6.984375 L 5.96875 -6.109375 L 2.046875 -6.109375 L 2.046875 -3.96875 L 5.546875 -3.96875 L 5.546875 -3.125 L 2.046875 -3.125 L 2.046875 -0.875 Z M 6.109375 -0.875 "/></g></g></g><g fill="#bb2525" fill-opacity="1"><g transform="translate(163.066098, 95.24228)"><g><path d="M 3.9375 0.078125 C 3.007812 0.078125 2.285156 -0.1875 1.765625 -0.71875 C 1.242188 -1.25 0.984375 -2.015625 0.984375 -3.015625 L 0.984375 -6.984375 L 1.984375 -6.984375 L 1.984375 -3.046875 C 1.984375 -1.554688 2.640625 -0.8125 3.953125 -0.8125 C 4.585938 -0.8125 5.070312 -0.992188 5.40625 -1.359375 C 5.75 -1.722656 5.921875 -2.285156 5.921875 -3.046875 L 5.921875 -6.984375 L 6.890625 -6.984375 L 6.890625 -3.015625 C 6.890625 -2.003906 6.628906 -1.234375 6.109375 -0.703125 C 5.585938 -0.179688 4.863281 0.078125 3.9375 0.078125 Z M 3.9375 0.078125 "/></g></g></g><g fill="#bb2525" fill-opacity="1"><g transform="translate(173.596844, 95.24228)"><g><path d="M 2.4375 -6.109375 L 0.046875 -6.109375 L 0.046875 -6.984375 L 5.8125 -6.984375 L 5.8125 -6.109375 L 3.421875 -6.109375 L 3.421875 0 L 2.4375 0 Z M 2.4375 -6.109375 "/></g></g></g><g fill="#bb2525" fill-opacity="1"><g transform="translate(182.093437, 95.24228)"><g><path d="M 1.046875 -6.984375 L 2.046875 -6.984375 L 2.046875 0 L 1.046875 0 Z M 1.046875 -6.984375 "/></g></g></g><g fill="#bb2525" fill-opacity="1"><g transform="translate(187.827975, 95.24228)"><g><path d="M 4.171875 0.078125 C 3.472656 0.078125 2.84375 -0.0703125 2.28125 -0.375 C 1.71875 -0.6875 1.273438 -1.113281 0.953125 -1.65625 C 0.640625 -2.195312 0.484375 -2.804688 0.484375 -3.484375 C 0.484375 -4.160156 0.640625 -4.769531 0.953125 -5.3125 C 1.273438 -5.851562 1.71875 -6.28125 2.28125 -6.59375 C 2.84375 -6.90625 3.472656 -7.0625 4.171875 -7.0625 C 4.722656 -7.0625 5.222656 -6.96875 5.671875 -6.78125 C 6.117188 -6.601562 6.503906 -6.332031 6.828125 -5.96875 L 6.1875 -5.34375 C 5.65625 -5.894531 5 -6.171875 4.21875 -6.171875 C 3.695312 -6.171875 3.226562 -6.050781 2.8125 -5.8125 C 2.394531 -5.582031 2.066406 -5.265625 1.828125 -4.859375 C 1.585938 -4.453125 1.46875 -3.992188 1.46875 -3.484375 C 1.46875 -2.984375 1.585938 -2.523438 1.828125 -2.109375 C 2.066406 -1.703125 2.394531 -1.382812 2.8125 -1.15625 C 3.226562 -0.925781 3.695312 -0.8125 4.21875 -0.8125 C 5 -0.8125 5.65625 -1.085938 6.1875 -1.640625 L 6.828125 -1.015625 C 6.503906 -0.660156 6.113281 -0.390625 5.65625 -0.203125 C 5.207031 -0.015625 4.710938 0.078125 4.171875 0.078125 Z M 4.171875 0.078125 "/></g></g></g><g fill="#bb2525" fill-opacity="1"><g transform="translate(197.680665, 95.24228)"><g/></g></g><g fill="#bb2525" fill-opacity="1"><g transform="translate(203.006381, 95.24228)"><g><path d="M 4.171875 0.078125 C 3.472656 0.078125 2.84375 -0.0703125 2.28125 -0.375 C 1.71875 -0.6875 1.273438 -1.113281 0.953125 -1.65625 C 0.640625 -2.195312 0.484375 -2.804688 0.484375 -3.484375 C 0.484375 -4.160156 0.640625 -4.769531 0.953125 -5.3125 C 1.273438 -5.851562 1.71875 -6.28125 2.28125 -6.59375 C 2.84375 -6.90625 3.472656 -7.0625 4.171875 -7.0625 C 4.722656 -7.0625 5.222656 -6.96875 5.671875 -6.78125 C 6.117188 -6.601562 6.503906 -6.332031 6.828125 -5.96875 L 6.1875 -5.34375 C 5.65625 -5.894531 5 -6.171875 4.21875 -6.171875 C 3.695312 -6.171875 3.226562 -6.050781 2.8125 -5.8125 C 2.394531 -5.582031 2.066406 -5.265625 1.828125 -4.859375 C 1.585938 -4.453125 1.46875 -3.992188 1.46875 -3.484375 C 1.46875 -2.984375 1.585938 -2.523438 1.828125 -2.109375 C 2.066406 -1.703125 2.394531 -1.382812 2.8125 -1.15625 C 3.226562 -0.925781 3.695312 -0.8125 4.21875 -0.8125 C 5 -0.8125 5.65625 -1.085938 6.1875 -1.640625 L 6.828125 -1.015625 C 6.503906 -0.660156 6.113281 -0.390625 5.65625 -0.203125 C 5.207031 -0.015625 4.710938 0.078125 4.171875 0.078125 Z M 4.171875 0.078125 "/></g></g></g><g fill="#bb2525" fill-opacity="1"><g transform="translate(212.859076, 95.24228)"><g><path d="M 1.046875 -6.984375 L 2.046875 -6.984375 L 2.046875 -0.875 L 5.828125 -0.875 L 5.828125 0 L 1.046875 0 Z M 1.046875 -6.984375 "/></g></g></g><g fill="#bb2525" fill-opacity="1"><g transform="translate(221.425466, 95.24228)"><g><path d="M 1.046875 -6.984375 L 2.046875 -6.984375 L 2.046875 0 L 1.046875 0 Z M 1.046875 -6.984375 "/></g></g></g><g fill="#bb2525" fill-opacity="1"><g transform="translate(227.160004, 95.24228)"><g><path d="M 7.046875 -6.984375 L 7.046875 0 L 6.234375 0 L 2.046875 -5.203125 L 2.046875 0 L 1.046875 0 L 1.046875 -6.984375 L 1.859375 -6.984375 L 6.046875 -1.78125 L 6.046875 -6.984375 Z M 7.046875 -6.984375 "/></g></g></g><g fill="#bb2525" fill-opacity="1"><g transform="translate(237.900149, 95.24228)"><g><path d="M 1.046875 -6.984375 L 2.046875 -6.984375 L 2.046875 0 L 1.046875 0 Z M 1.046875 -6.984375 "/></g></g></g><g fill="#bb2525" fill-opacity="1"><g transform="translate(243.634687, 95.24228)"><g><path d="M 4.171875 0.078125 C 3.472656 0.078125 2.84375 -0.0703125 2.28125 -0.375 C 1.71875 -0.6875 1.273438 -1.113281 0.953125 -1.65625 C 0.640625 -2.195312 0.484375 -2.804688 0.484375 -3.484375 C 0.484375 -4.160156 0.640625 -4.769531 0.953125 -5.3125 C 1.273438 -5.851562 1.71875 -6.28125 2.28125 -6.59375 C 2.84375 -6.90625 3.472656 -7.0625 4.171875 -7.0625 C 4.722656 -7.0625 5.222656 -6.96875 5.671875 -6.78125 C 6.117188 -6.601562 6.503906 -6.332031 6.828125 -5.96875 L 6.1875 -5.34375 C 5.65625 -5.894531 5 -6.171875 4.21875 -6.171875 C 3.695312 -6.171875 3.226562 -6.050781 2.8125 -5.8125 C 2.394531 -5.582031 2.066406 -5.265625 1.828125 -4.859375 C 1.585938 -4.453125 1.46875 -3.992188 1.46875 -3.484375 C 1.46875 -2.984375 1.585938 -2.523438 1.828125 -2.109375 C 2.066406 -1.703125 2.394531 -1.382812 2.8125 -1.15625 C 3.226562 -0.925781 3.695312 -0.8125 4.21875 -0.8125 C 5 -0.8125 5.65625 -1.085938 6.1875 -1.640625 L 6.828125 -1.015625 C 6.503906 -0.660156 6.113281 -0.390625 5.65625 -0.203125 C 5.207031 -0.015625 4.710938 0.078125 4.171875 0.078125 Z M 4.171875 0.078125 "/></g></g></g></svg>